<?xml version="1.0" encoding="UTF-8"?>
<!-- Created with Inkscape (http://www.inkscape.org/) -->
<svg width="280" height="280" version="1.1" viewBox="0 0 280 280" xmlns="http://www.w3.org/2000/svg">
 <path id="Chip" d="m68 0c-7 0-12 5-12 12v8h-12c-14 0-24 10-24 24v12h-8c-7 0-12 5-12 12 0 7 5 12 12 12h8v24h-8c-7.12 0-12 5-12 12 0 7 5 12 12 12h8v24h-8c-7 0-12 5-12 12 0 7 5 12 12 12h8v24h-8c-7 0-12 5-12 12 0 7 5 12 12 12h8v12c0 14 10 24 24 24h12v8c0 7 5 12 12 12 7 0 12-5 12-12v-8h24v8c0 7 5 12 12 12s12-5 12-12v-8h24v8c0 7 5 12 12 12 7 0 12-5 12-12v-8h24v8c0 7 5 12 12 12s12-4.75 12-12v-8h12c14 0 24-10 24-24v-12h8c7 0 12-4.5 12-11.75 0-7.25-5-12.25-12-12.25h-8c0.01-2.08-0.06-21.99 0-24h8c7 0 12-4.4407 12-11.721 0-7.28-5-12.279-12-12.279h-8c0-2-0.06-21.98 0-24h8c7 0 12-5 12-12 0-7-5-12-12-12h-8c0.01-2.08-0.06-21.97 0-24h8c7 0 12-5 12-12 0-7-5-12-12-12h-8v-12c0-14-10-24-24-24h-12v-8c0-7-5-12-12-12s-12 5-12 12v8h-24v-8c0-7-5-12-12-12-7 0-12 5-12 12v8h-24v-8c0-7-5.1206-12-12.061-12-6.94 0-11.939 5-11.939 12v8h-24v-8c0-7-5-12-12-12zm-28 40h20v68h48v-68h20v80c0 4-4 8-8 8h-72c-4 0-8-4-8-8v-80zm112 0h80c4 0 8 4 8 8v40c0 4-4 8-8 8h-20l32 32h-28l-32-32v-20h36v-16h-48v68h-20v-88zm-104 112h72c4 0 8 4 8 8v28h-20v-16h-48v48h48v-16h20v28c0 4-4 8-8 8h-72c-4 0-8-4-8-8v-72c0-4 4-8 8-8zm104 0h20v68h68v20h-88v-88z" fill="#df1f1f"/>
</svg>